<?xml version="1.0" encoding="utf-8"?>
<!-- Generator: Adobe Illustrator 25.0.0, SVG Export Plug-In . SVG Version: 6.00 Build 0)  -->
<svg version="1.1" id="Layer_1" xmlns="http://www.w3.org/2000/svg" xmlns:xlink="http://www.w3.org/1999/xlink" x="0px" y="0px"
	 viewBox="0 0 342 116" style="enable-background:new 0 0 342 116;" xml:space="preserve">
<style type="text/css">
	.st0{fill:#EFEFF0;}
	.st1{fill:#F4B223;}
</style>
<path class="st0" d="M254.92,34.47c-4.5-4.5-8.57-4.32-8.57-4.32h-17.21c0,0-5.2-0.2-8.84,1.56c-4.28,2.21-6.77,6.91-7.04,11.72
	c-0.1,1.94-0.1,15.64,0,17.58c0.27,4.81,2.76,9.52,7.04,11.72c3.65,1.76,8.84,1.56,8.84,1.56h28.54V62.78h-22.86
	c-7.22,0-7.78-4.79-7.8-6.03h30.7l-0.04-15.09C257.68,41.66,257.86,37.41,254.92,34.47 M227.01,48.47L227.01,48.47v-0.49
	c0,0-0.49-6.32,7.8-6.32h5.37c4.66,0,6.01,2.43,6.34,4.39v2.42H227.01z"/>
<polygon class="st0" points="72.74,23.23 54.27,23.23 36.56,48.51 36.56,18.09 20.21,14 20.21,91.06 36.1,87.27 36.1,56.69 
	54.87,81.82 74.86,81.82 51.24,51.85 "/>
<polygon class="st0" points="327.47,30.14 327.47,20.13 313.02,20.13 313.02,30.14 307.04,30.14 307.04,42.46 313.17,42.46 
	313.17,75.17 327.47,75.17 327.47,42.46 333,42.46 333,30.14 "/>
<path class="st0" d="M145.37,30.43c-1.94-0.11-14.87-0.11-16.81,0c-4.81,0.26-9.51,2.76-11.72,7.04c-1.76,3.65-1.56,8.84-1.56,8.84
	v28.54h14.3V49.19c0-8.29,6.32-7.79,6.32-7.79h2.11c0,0,6.32-0.49,6.32,7.79v25.67h14.31V46.31c0,0,0.2-5.19-1.56-8.84
	C154.88,33.19,150.17,30.69,145.37,30.43"/>
<path class="st0" d="M194.65,30.43c-1.94-0.11-14.87-0.11-16.81,0c-4.81,0.26-9.52,2.76-11.72,7.04c-1.76,3.65-1.56,8.84-1.56,8.84
	v28.54h14.3V49.19c0-8.29,6.32-7.79,6.32-7.79h2.11c0,0,6.33-0.49,6.33,7.79v25.67h14.3V46.31c0,0,0.2-5.19-1.56-8.84
	C204.16,33.19,199.46,30.69,194.65,30.43"/>
<path class="st0" d="M270.6,31.71c-4.28,2.21-6.77,6.91-7.04,11.72c-0.1,1.94-0.1,15.64,0,17.58c0.26,4.81,2.76,9.52,7.04,11.72
	c3.65,1.75,8.84,1.56,8.84,1.56h22.87V62.78h-17.2c-8.29,0-7.8-6.32-7.8-6.32v-8.48c0,0-0.5-6.32,7.8-6.32h17.2v-11.5h-22.87
	C279.44,30.15,274.25,29.95,270.6,31.71"/>
<path class="st0" d="M257.68,41.66c0,0,0.18-4.25-2.76-7.19c-4.5-4.5-8.57-4.32-8.57-4.32h-17.21c0,0-5.2-0.2-8.84,1.56
	c-4.28,2.21-6.77,6.91-7.04,11.72c-0.11,1.94-0.11,15.64,0,17.58c0.27,4.81,2.76,9.52,7.04,11.72c3.65,1.76,8.84,1.56,8.84,1.56
	h28.54V62.78h-22.86c-7.22,0-7.78-4.79-7.8-6.03h30.7L257.68,41.66z M246.52,48.47L246.52,48.47h-19.51v-0.49
	c0,0-0.49-6.32,7.8-6.32h11.71V48.47z"/>
<path class="st1" d="M82.78,52.52c0,3.11,2.52,5.63,5.63,5.63c3.11,0,5.62-2.52,5.62-5.63c0-3.11-2.52-5.63-5.62-5.63
	C85.3,46.89,82.78,49.41,82.78,52.52"/>
<path class="st0" d="M188.07,92.67c-0.19,0.89-0.52,1.74-0.99,2.54c-0.47,0.81-1.04,1.51-1.71,2.12c-0.67,0.61-1.42,1.09-2.24,1.44
	c-0.82,0.36-1.68,0.54-2.57,0.54c-0.56,0-1.06-0.08-1.51-0.23c-0.45-0.16-0.85-0.4-1.21-0.73L177.71,99h-3.15l3.84-18.18h3.17
	l-1.27,6.13c0.43-0.29,0.91-0.53,1.45-0.7c0.54-0.17,1.09-0.27,1.64-0.27c0.77,0,1.49,0.18,2.15,0.52c0.66,0.35,1.21,0.81,1.65,1.41
	c0.44,0.6,0.75,1.3,0.92,2.11C188.29,90.84,188.27,91.72,188.07,92.67 M184.87,92.67L184.87,92.67c0.12-0.59,0.15-1.12,0.07-1.6
	c-0.07-0.48-0.23-0.9-0.47-1.24c-0.24-0.34-0.56-0.6-0.96-0.79c-0.39-0.18-0.85-0.28-1.38-0.28c-0.34,0-0.74,0.07-1.21,0.21
	c-0.47,0.14-0.87,0.32-1.21,0.54l-1.29,6.09c0.56,0.63,1.27,0.94,2.13,0.94c0.5,0,0.99-0.09,1.46-0.29c0.47-0.19,0.9-0.46,1.28-0.8
	c0.38-0.34,0.71-0.75,0.99-1.23C184.56,93.76,184.76,93.24,184.87,92.67"/>
<path class="st0" d="M203.13,92.65c-0.05,0.21-0.1,0.42-0.17,0.64c-0.07,0.22-0.14,0.45-0.22,0.68h-10.12
	c0.04,0.36,0.13,0.71,0.27,1.04c0.15,0.32,0.34,0.61,0.6,0.85c0.26,0.24,0.56,0.43,0.92,0.57c0.36,0.14,0.77,0.21,1.23,0.21
	c0.57,0,1.16-0.1,1.77-0.29c0.61-0.2,1.14-0.46,1.59-0.8l1.57,1.99c-1.01,0.66-1.97,1.12-2.87,1.39c-0.9,0.27-1.82,0.41-2.75,0.41
	c-0.95,0-1.8-0.18-2.55-0.53c-0.75-0.35-1.37-0.82-1.85-1.43c-0.48-0.6-0.81-1.3-0.99-2.11c-0.18-0.81-0.17-1.67,0.02-2.59
	c0.19-0.92,0.55-1.78,1.07-2.6c0.52-0.81,1.15-1.51,1.89-2.11c0.74-0.6,1.56-1.08,2.45-1.42c0.89-0.35,1.81-0.52,2.74-0.52
	c0.89,0,1.71,0.16,2.46,0.49c0.75,0.33,1.37,0.79,1.88,1.37c0.51,0.59,0.85,1.28,1.05,2.09C203.34,90.78,203.33,91.67,203.13,92.65
	 M200.08,91.43L200.08,91.43c-0.08-0.8-0.39-1.45-0.92-1.94c-0.54-0.49-1.2-0.73-2-0.73c-0.79,0-1.55,0.24-2.28,0.73
	c-0.73,0.49-1.31,1.14-1.73,1.94H200.08z"/>
<path class="st0" d="M217.93,86.32l-8.87,15.05c-0.66,1.12-1.39,1.93-2.18,2.43c-0.79,0.5-1.66,0.75-2.61,0.75
	c-0.14,0-0.3-0.01-0.47-0.03c-0.17-0.02-0.33-0.06-0.48-0.1l-0.43-2.93c0.22,0.12,0.46,0.21,0.71,0.27c0.25,0.07,0.49,0.1,0.72,0.1
	c0.49,0,0.97-0.11,1.43-0.34c0.46-0.23,0.86-0.64,1.21-1.26l0.71-1.27l-2.21-12.66h3.44l1.19,8.15l4.46-8.15H217.93z"/>
<path class="st0" d="M204.27,104.82c-0.15,0-0.33-0.01-0.51-0.03c-0.18-0.02-0.36-0.06-0.52-0.11l-0.17-0.05l-0.54-3.65l0.49,0.25
	c0.2,0.1,0.42,0.19,0.65,0.25c0.71,0.19,1.35,0.08,1.96-0.22c0.41-0.2,0.77-0.59,1.09-1.15l0.66-1.19l-2.25-12.89h4.01l1.11,7.56
	l4.14-7.56h4.04l-9.12,15.47c-0.68,1.16-1.45,2.01-2.27,2.52C206.2,104.56,205.27,104.82,204.27,104.82 M203.56,104.19
	L203.56,104.19c0.09,0.02,0.18,0.03,0.27,0.05c0.16,0.02,0.31,0.03,0.44,0.03c0.89,0,1.72-0.23,2.46-0.7
	c0.75-0.47,1.45-1.26,2.09-2.34l8.63-14.63h-2.75l-4.78,8.73l-1.28-8.73h-2.87l2.17,12.43l-0.75,1.36
	c-0.38,0.66-0.82,1.12-1.33,1.37c-0.73,0.36-1.51,0.48-2.35,0.26c-0.1-0.02-0.2-0.06-0.29-0.09L203.56,104.19z"/>
<path class="st0" d="M231.09,92.67c-0.2,0.95-0.56,1.83-1.08,2.64c-0.52,0.81-1.15,1.51-1.89,2.1c-0.74,0.59-1.56,1.06-2.45,1.4
	c-0.9,0.34-1.82,0.52-2.75,0.52c-0.93,0-1.77-0.17-2.52-0.52c-0.75-0.34-1.36-0.81-1.85-1.42c-0.48-0.6-0.82-1.3-1-2.11
	c-0.18-0.81-0.17-1.69,0.03-2.62c0.19-0.92,0.55-1.78,1.08-2.6c0.53-0.81,1.16-1.52,1.9-2.12c0.74-0.61,1.56-1.08,2.45-1.43
	c0.89-0.34,1.79-0.51,2.71-0.51c0.94,0,1.78,0.17,2.53,0.51c0.75,0.35,1.37,0.81,1.86,1.4c0.49,0.6,0.82,1.3,1,2.12
	C231.3,90.86,231.29,91.74,231.09,92.67 M227.94,92.67L227.94,92.67c0.11-0.54,0.13-1.04,0.04-1.51c-0.09-0.47-0.27-0.88-0.52-1.23
	c-0.26-0.35-0.58-0.62-0.98-0.82c-0.39-0.2-0.84-0.3-1.33-0.3c-0.5,0-0.99,0.1-1.46,0.3c-0.48,0.2-0.92,0.47-1.32,0.82
	c-0.4,0.35-0.75,0.76-1.04,1.23c-0.29,0.47-0.49,0.97-0.6,1.51c-0.11,0.54-0.12,1.04-0.03,1.51c0.09,0.47,0.26,0.87,0.51,1.23
	c0.25,0.35,0.58,0.62,0.98,0.82c0.39,0.2,0.84,0.3,1.34,0.3c0.49,0,0.98-0.1,1.46-0.3c0.48-0.2,0.92-0.47,1.32-0.82
	c0.4-0.35,0.75-0.76,1.03-1.23C227.62,93.72,227.83,93.21,227.94,92.67"/>
<path class="st0" d="M243.25,99h-3.16l1.6-7.56c0.1-0.45,0.11-0.85,0.04-1.19c-0.07-0.34-0.2-0.63-0.38-0.86
	c-0.19-0.23-0.42-0.4-0.7-0.5c-0.27-0.11-0.58-0.16-0.9-0.16c-0.48,0-0.98,0.08-1.48,0.25c-0.5,0.17-0.98,0.44-1.45,0.8L234.88,99
	h-3.15l2.67-12.66h3.15l-0.18,0.94c0.23-0.19,0.5-0.36,0.81-0.52c0.31-0.16,0.63-0.3,0.95-0.41c0.32-0.11,0.65-0.19,0.97-0.25
	c0.32-0.06,0.63-0.09,0.93-0.09c0.64,0,1.24,0.1,1.79,0.3c0.55,0.21,1.01,0.52,1.38,0.94c0.37,0.43,0.62,0.97,0.76,1.64
	c0.14,0.67,0.1,1.47-0.09,2.39L243.25,99z"/>
<path class="st0" d="M243.48,99.28h-3.72l1.67-7.89c0.08-0.41,0.1-0.77,0.04-1.08c-0.06-0.3-0.17-0.54-0.32-0.73
	c-0.16-0.19-0.35-0.33-0.59-0.42c-0.63-0.24-1.42-0.16-2.19,0.1c-0.44,0.14-0.87,0.38-1.28,0.69l-1.97,9.34h-3.72l2.79-13.21h3.72
	l-0.12,0.61c0.09-0.06,0.19-0.11,0.29-0.16c0.32-0.16,0.65-0.31,0.99-0.42c0.33-0.11,0.67-0.2,1.01-0.26
	c1.08-0.19,2.02-0.08,2.86,0.23c0.6,0.22,1.09,0.57,1.49,1.02c0.4,0.46,0.68,1.05,0.82,1.77c0.14,0.7,0.12,1.55-0.08,2.5
	L243.48,99.28z M240.44,98.73L240.44,98.73h2.59l1.58-7.49c0.18-0.88,0.21-1.64,0.08-2.28c-0.13-0.62-0.36-1.13-0.69-1.51
	c-0.34-0.39-0.76-0.68-1.27-0.87c-0.75-0.28-1.6-0.38-2.57-0.21c-0.31,0.06-0.63,0.14-0.93,0.24c-0.31,0.1-0.61,0.24-0.91,0.39
	c-0.3,0.15-0.55,0.32-0.76,0.49l-0.59,0.49l0.26-1.36h-2.59l-2.56,12.1h2.59l1.92-9.1l0.08-0.06c0.49-0.38,1-0.67,1.53-0.84
	c0.89-0.3,1.82-0.38,2.57-0.08c0.32,0.13,0.6,0.32,0.81,0.58c0.22,0.26,0.37,0.59,0.44,0.98c0.07,0.38,0.06,0.82-0.04,1.3
	L240.44,98.73z"/>
<path class="st0" d="M257.4,99h-3.22l0.14-0.66c-0.48,0.33-0.98,0.58-1.49,0.73c-0.51,0.15-1.04,0.23-1.58,0.23
	c-0.89,0-1.67-0.18-2.34-0.54c-0.67-0.36-1.21-0.84-1.62-1.45c-0.41-0.61-0.68-1.31-0.81-2.11c-0.13-0.8-0.1-1.65,0.08-2.54
	c0.21-0.95,0.56-1.83,1.07-2.64c0.52-0.81,1.12-1.52,1.82-2.11c0.7-0.6,1.45-1.07,2.25-1.42c0.8-0.34,1.59-0.52,2.36-0.52
	c0.54,0,1.05,0.08,1.53,0.22c0.48,0.15,0.88,0.35,1.19,0.62l1.27-6h3.2L257.4,99z M254.94,95.61L254.94,95.61l1.29-6.09
	c-0.12-0.1-0.27-0.2-0.44-0.3c-0.17-0.09-0.35-0.17-0.54-0.24c-0.19-0.07-0.39-0.12-0.58-0.16c-0.2-0.04-0.38-0.05-0.54-0.05
	c-0.53,0-1.03,0.09-1.5,0.28c-0.47,0.18-0.91,0.45-1.3,0.79c-0.4,0.34-0.73,0.76-1.01,1.24c-0.28,0.48-0.48,1.01-0.6,1.6
	c-0.12,0.57-0.14,1.09-0.07,1.57c0.07,0.48,0.23,0.88,0.47,1.23c0.24,0.34,0.55,0.61,0.94,0.8c0.39,0.19,0.84,0.29,1.36,0.29
	C253.25,96.55,254.09,96.24,254.94,95.61"/>
<path class="st0" d="M272.29,98.94c-0.27,0.12-0.58,0.21-0.9,0.29c-0.33,0.07-0.66,0.11-1,0.11c-0.47,0-0.9-0.06-1.31-0.19
	c-0.41-0.12-0.74-0.32-1-0.6c-0.26-0.28-0.44-0.64-0.53-1.08c-0.09-0.45-0.08-0.98,0.06-1.61l3.17-15.02h3.22l-3.06,14.48
	c-0.11,0.53-0.09,0.89,0.09,1.09c0.17,0.2,0.4,0.3,0.69,0.3c0.37,0,0.74-0.12,1.12-0.33L272.29,98.94z"/>
<path class="st0" d="M270.39,99.61c-0.49,0-0.96-0.07-1.39-0.2c-0.45-0.14-0.83-0.36-1.12-0.68c-0.3-0.31-0.5-0.72-0.61-1.21
	c-0.1-0.49-0.08-1.05,0.06-1.73l3.22-15.24h3.79l-3.13,14.81c-0.13,0.59-0.02,0.79,0.02,0.85c0.12,0.14,0.27,0.2,0.48,0.2
	c0.32,0,0.64-0.09,0.98-0.29l0.54-0.31l-0.7,3.33l-0.13,0.05c-0.29,0.13-0.61,0.23-0.95,0.3C271.09,99.57,270.74,99.61,270.39,99.61
	 M270.99,81.1L270.99,81.1l-3.13,14.81c-0.12,0.59-0.14,1.09-0.05,1.5c0.08,0.39,0.24,0.71,0.47,0.95c0.23,0.24,0.53,0.42,0.88,0.53
	c0.65,0.2,1.42,0.23,2.17,0.07c0.25-0.06,0.5-0.13,0.72-0.22l0.4-1.9c-0.64,0.22-1.27,0.16-1.64-0.27c-0.23-0.27-0.28-0.7-0.15-1.32
	l2.99-14.15H270.99z"/>
<path class="st0" d="M277.05,99h-3.2l2.68-12.69h3.2L277.05,99z M280.23,84.13L280.23,84.13h-3.28l0.69-3.28h3.29L280.23,84.13z"/>
<path class="st0" d="M277.27,99.28h-3.76l2.8-13.23h3.76L277.27,99.28z M274.19,98.73L274.19,98.73h2.63l2.56-12.13h-2.63
	L274.19,98.73z M280.46,84.41L280.46,84.41h-3.85l0.81-3.84h3.85L280.46,84.41z M277.29,83.85L277.29,83.85h2.72l0.58-2.73h-2.72
	L277.29,83.85z"/>
<path class="st0" d="M298.69,99h-3.15l1.6-7.56c0.19-0.89,0.11-1.57-0.22-2.03c-0.33-0.46-0.81-0.69-1.44-0.69
	c-0.48,0-0.95,0.07-1.42,0.23c-0.46,0.15-0.93,0.4-1.42,0.76c0.02,0.51-0.03,1.09-0.17,1.73l-1.6,7.56h-3.15l1.6-7.56
	c0.19-0.89,0.11-1.57-0.22-2.03c-0.33-0.46-0.81-0.69-1.42-0.69c-0.48,0-0.92,0.08-1.33,0.25c-0.4,0.17-0.84,0.44-1.31,0.8
	L283.09,99h-3.15l2.67-12.66h3.15l-0.2,0.94c0.48-0.38,1-0.68,1.59-0.92c0.58-0.23,1.15-0.35,1.71-0.35c0.61,0,1.2,0.14,1.76,0.42
	c0.56,0.28,1.02,0.68,1.38,1.2c0.78-0.58,1.54-1,2.26-1.25c0.72-0.25,1.49-0.37,2.29-0.37c0.66,0,1.26,0.1,1.81,0.3
	c0.55,0.2,1,0.51,1.34,0.94c0.35,0.43,0.59,0.98,0.7,1.64c0.13,0.66,0.09,1.46-0.11,2.4L298.69,99z"/>
<path class="st0" d="M298.92,99.28h-3.72l1.67-7.89c0.17-0.81,0.11-1.41-0.17-1.81c-0.28-0.39-0.68-0.57-1.22-0.57
	c-0.45,0-0.9,0.07-1.33,0.21c-0.4,0.13-0.81,0.34-1.22,0.63c0.01,0.49-0.05,1.05-0.18,1.65l-1.64,7.78h-3.72l1.67-7.89
	c0.17-0.81,0.11-1.41-0.17-1.81c-0.28-0.39-0.67-0.57-1.2-0.57c-0.44,0-0.85,0.07-1.22,0.23c-0.35,0.15-0.74,0.38-1.16,0.7
	l-1.97,9.34h-3.72l2.79-13.21h3.72l-0.12,0.59c0.34-0.21,0.7-0.39,1.07-0.55c1.3-0.52,2.56-0.48,3.7,0.08
	c0.52,0.25,0.96,0.61,1.32,1.07c0.72-0.51,1.43-0.89,2.11-1.13c1.38-0.47,3.02-0.53,4.28-0.08c0.6,0.21,1.09,0.56,1.47,1.03
	c0.38,0.46,0.63,1.06,0.76,1.76c0.13,0.7,0.09,1.54-0.12,2.51L298.92,99.28z M295.88,98.73L295.88,98.73h2.59l1.58-7.49
	c0.19-0.89,0.23-1.67,0.11-2.29c-0.11-0.62-0.33-1.13-0.65-1.52c-0.31-0.39-0.73-0.67-1.22-0.85c-1.15-0.42-2.67-0.35-3.92,0.08
	c-0.69,0.24-1.43,0.65-2.19,1.21l-0.23,0.17l-0.16-0.24c-0.33-0.49-0.76-0.86-1.27-1.11c-0.99-0.49-2.09-0.52-3.25-0.06
	c-0.55,0.22-1.06,0.52-1.52,0.88l-0.6,0.48l0.28-1.36h-2.59l-2.56,12.1h2.59l1.92-9.1l0.08-0.06c0.5-0.39,0.95-0.66,1.37-0.84
	c0.43-0.18,0.91-0.27,1.43-0.27c0.7,0,1.26,0.27,1.64,0.8c0.38,0.53,0.47,1.28,0.27,2.25l-1.53,7.22h2.59l1.55-7.34
	c0.13-0.62,0.18-1.18,0.16-1.66l-0.01-0.15l0.12-0.09c0.5-0.37,1-0.63,1.49-0.8c0.49-0.16,1-0.24,1.51-0.24
	c0.72,0,1.28,0.27,1.67,0.8c0.38,0.53,0.47,1.28,0.27,2.25L295.88,98.73z"/>
<path class="st0" d="M304.32,99h-3.2l2.68-12.69h3.2L304.32,99z M307.51,84.13L307.51,84.13h-3.28l0.69-3.28h3.28L307.51,84.13z"/>
<path class="st0" d="M304.55,99.28h-3.77l2.8-13.23h3.76L304.55,99.28z M301.47,98.73L301.47,98.73h2.63l2.56-12.13h-2.63
	L301.47,98.73z M307.73,84.41L307.73,84.41h-3.85l0.81-3.84h3.85L307.73,84.41z M304.56,83.85L304.56,83.85h2.72l0.58-2.73h-2.72
	L304.56,83.85z"/>
<path class="st0" d="M314.32,98.72c-0.37,0.2-0.77,0.36-1.21,0.46c-0.45,0.1-0.88,0.15-1.3,0.15c-0.75,0-1.35-0.09-1.83-0.28
	c-0.47-0.18-0.82-0.46-1.05-0.84c-0.23-0.38-0.34-0.86-0.36-1.45c-0.02-0.59,0.06-1.27,0.22-2.06l1.17-5.54h-1.67l0.3-1.43
	c1.11-0.42,2.07-1.05,2.88-1.88c0.81-0.83,1.47-1.91,1.99-3.24h1.03l-0.78,3.7h3.2l-0.6,2.85h-3.2l-1.22,5.76
	c-0.07,0.32-0.08,0.59-0.05,0.79c0.04,0.21,0.11,0.37,0.21,0.48c0.11,0.12,0.24,0.2,0.4,0.24c0.16,0.04,0.33,0.07,0.53,0.07
	c0.25,0,0.55-0.05,0.92-0.13c0.37-0.09,0.7-0.24,0.99-0.44L314.32,98.72z"/>
<path class="st0" d="M311.81,99.61c-0.78,0-1.43-0.1-1.93-0.29c-0.53-0.21-0.93-0.53-1.19-0.96c-0.25-0.42-0.38-0.95-0.4-1.58
	c-0.02-0.6,0.06-1.29,0.23-2.12l1.1-5.21h-1.67l0.4-1.91l0.14-0.05c1.07-0.41,2.01-1.02,2.79-1.82c0.78-0.8,1.43-1.86,1.93-3.14
	l0.07-0.18h1.56l-0.78,3.7h3.2l-0.72,3.4h-3.2l-1.17,5.54c-0.06,0.28-0.07,0.51-0.04,0.68c0.03,0.15,0.08,0.27,0.15,0.34
	c0.07,0.08,0.16,0.14,0.27,0.16c0.3,0.09,0.71,0.07,1.31-0.07c0.33-0.08,0.63-0.21,0.9-0.39l0.58-0.41l-0.76,3.59l-0.11,0.06
	c-0.38,0.22-0.82,0.39-1.29,0.49C312.71,99.55,312.25,99.61,311.81,99.61 M308.64,88.89L308.64,88.89h1.67l-1.24,5.88
	c-0.16,0.77-0.23,1.44-0.22,1.99c0.02,0.54,0.12,0.98,0.32,1.31c0.2,0.34,0.49,0.57,0.91,0.73c0.44,0.17,1.02,0.26,1.73,0.26
	c0.4,0,0.82-0.05,1.24-0.15c0.38-0.09,0.72-0.21,1.03-0.38l0.44-2.06c-0.17,0.07-0.35,0.13-0.53,0.17
	c-0.71,0.17-1.18,0.18-1.58,0.06c-0.21-0.05-0.39-0.16-0.53-0.32c-0.14-0.15-0.24-0.36-0.28-0.62c-0.04-0.24-0.03-0.54,0.05-0.9
	l1.27-5.98h3.2l0.48-2.29h-3.2l0.78-3.7h-0.5c-0.52,1.28-1.18,2.34-1.98,3.16c-0.8,0.82-1.75,1.46-2.84,1.89L308.64,88.89z"/>
<path class="st0" d="M326.16,95.45c-0.13,0.63-0.4,1.19-0.79,1.68c-0.4,0.49-0.86,0.9-1.4,1.22c-0.54,0.33-1.11,0.58-1.74,0.74
	c-0.62,0.17-1.22,0.25-1.79,0.25c-0.97,0-1.82-0.18-2.55-0.54c-0.74-0.36-1.33-0.93-1.78-1.72l2.31-1.93
	c0.28,0.49,0.64,0.86,1.08,1.13c0.44,0.27,0.94,0.41,1.51,0.41c0.5,0,0.93-0.09,1.3-0.28c0.37-0.18,0.59-0.46,0.67-0.82
	c0.08-0.38-0.09-0.7-0.5-0.95c-0.41-0.26-1.02-0.51-1.81-0.75c-0.47-0.14-0.91-0.33-1.33-0.56c-0.42-0.23-0.78-0.5-1.08-0.83
	c-0.29-0.33-0.51-0.71-0.64-1.13c-0.13-0.42-0.14-0.91-0.02-1.47c0.13-0.61,0.39-1.16,0.78-1.66c0.39-0.49,0.85-0.9,1.38-1.22
	c0.53-0.33,1.11-0.58,1.73-0.76c0.62-0.17,1.23-0.26,1.83-0.26c1.93,0,3.36,0.73,4.28,2.19l-2.29,1.91
	c-0.27-0.45-0.61-0.81-1.02-1.07c-0.41-0.26-0.9-0.4-1.45-0.4c-0.19,0-0.4,0.03-0.62,0.08c-0.22,0.05-0.44,0.12-0.64,0.22
	c-0.2,0.1-0.38,0.22-0.53,0.37c-0.15,0.15-0.24,0.33-0.28,0.51c-0.07,0.34,0.09,0.63,0.48,0.88c0.39,0.25,0.98,0.5,1.76,0.75
	c0.51,0.16,0.97,0.37,1.4,0.61c0.43,0.25,0.79,0.53,1.09,0.86c0.3,0.33,0.51,0.7,0.63,1.12C326.27,94.46,326.28,94.93,326.16,95.45"
	/>
<path class="st0" d="M320.44,99.63c-1.01,0-1.91-0.19-2.68-0.57c-0.78-0.38-1.42-1-1.9-1.83l-0.12-0.2l2.75-2.29l0.17,0.29
	c0.25,0.44,0.58,0.78,0.98,1.03c0.4,0.24,0.85,0.37,1.37,0.37c0.45,0,0.85-0.08,1.17-0.24c0.29-0.14,0.46-0.35,0.52-0.63
	c0.04-0.18,0.03-0.41-0.37-0.66c-0.39-0.24-0.98-0.49-1.75-0.73c-0.48-0.15-0.95-0.34-1.37-0.58c-0.45-0.24-0.83-0.54-1.15-0.89
	c-0.32-0.36-0.55-0.77-0.7-1.23c-0.14-0.47-0.15-1.01-0.03-1.61c0.14-0.65,0.42-1.24,0.83-1.77c0.41-0.51,0.9-0.94,1.45-1.29
	c0.55-0.34,1.16-0.61,1.8-0.79c0.64-0.18,1.28-0.27,1.91-0.27c2.03,0,3.55,0.78,4.52,2.32l0.13,0.21l-2.72,2.27l-0.16-0.28
	c-0.25-0.41-0.56-0.74-0.93-0.98c-0.37-0.23-0.8-0.35-1.3-0.35c-0.16,0-0.35,0.02-0.56,0.07c-0.2,0.05-0.4,0.11-0.58,0.2
	c-0.18,0.08-0.32,0.19-0.45,0.32c-0.11,0.11-0.18,0.24-0.21,0.38c-0.02,0.08-0.07,0.31,0.36,0.59c0.37,0.23,0.94,0.47,1.69,0.71
	c0.53,0.17,1.01,0.38,1.46,0.64c0.45,0.26,0.84,0.57,1.15,0.92c0.32,0.36,0.56,0.77,0.69,1.22c0.14,0.46,0.15,0.98,0.03,1.55
	c-0.14,0.67-0.43,1.27-0.85,1.79c-0.41,0.51-0.91,0.94-1.47,1.29c-0.56,0.34-1.17,0.6-1.81,0.78
	C321.66,99.54,321.04,99.63,320.44,99.63 M316.47,97.16L316.47,97.16c0.4,0.64,0.92,1.11,1.54,1.41c1.1,0.54,2.54,0.7,4.15,0.27
	c0.59-0.16,1.15-0.4,1.67-0.71c0.51-0.31,0.95-0.7,1.33-1.16c0.37-0.45,0.61-0.98,0.73-1.56c0.1-0.48,0.1-0.91-0.01-1.28
	c-0.12-0.37-0.31-0.71-0.57-1.01c-0.27-0.31-0.62-0.58-1.02-0.81c-0.41-0.24-0.86-0.43-1.35-0.59c-0.81-0.26-1.41-0.51-1.83-0.77
	c-0.62-0.4-0.67-0.85-0.61-1.17c0.05-0.24,0.17-0.46,0.35-0.65c0.17-0.18,0.38-0.32,0.61-0.43c0.22-0.1,0.45-0.18,0.69-0.24
	c0.25-0.05,0.48-0.08,0.68-0.08c0.6,0,1.14,0.15,1.6,0.44c0.36,0.23,0.68,0.53,0.93,0.89l1.86-1.55c-0.87-1.25-2.15-1.86-3.91-1.86
	c-0.57,0-1.16,0.08-1.75,0.25c-0.59,0.17-1.15,0.41-1.66,0.72c-0.5,0.31-0.94,0.7-1.31,1.16c-0.36,0.45-0.6,0.97-0.72,1.54
	c-0.11,0.51-0.1,0.96,0.01,1.33c0.12,0.38,0.31,0.72,0.58,1.02c0.27,0.3,0.61,0.56,1,0.77c0.4,0.22,0.83,0.39,1.28,0.54
	c0.81,0.25,1.44,0.52,1.88,0.78c0.65,0.4,0.7,0.9,0.62,1.25c-0.09,0.45-0.37,0.79-0.81,1.01c-0.4,0.2-0.88,0.3-1.42,0.3
	c-0.62,0-1.18-0.15-1.66-0.45c-0.39-0.24-0.72-0.56-1-0.95L316.47,97.16z"/>
<path class="st1" d="M91.15,30.34L91.15,30.34l-0.05,0c-0.03,0-0.07-0.01-0.1-0.01v0.01c0.02,0,0.04,0,0.05,0v10.21
	c5.61,1.17,9.83,6.15,9.83,12.11c0,6.84-5.54,12.38-12.38,12.38c-6.83,0-12.37-5.54-12.37-12.38c0-5.96,4.21-10.94,9.83-12.11V30.36
	c-11.43,1.28-20.33,10.72-20.33,22.17c0,12.31,10.31,22.33,22.97,22.33c12.67,0,22.97-10.02,22.97-22.33
	C111.58,41.05,102.62,31.57,91.15,30.34z"/>
</svg>
